<svg xmlns="http://www.w3.org/2000/svg" width="310" height="159" viewBox="0 0 310 159">
  <defs>
    <style>
      .cls-1 {
        fill: #fff;
        fill-rule: evenodd;
      }
    </style>
  </defs>
  <path id="Vector" class="cls-1" d="M169.758,11.585H170.7a7.573,7.573,0,0,1,.469,3.516c0.182,0.28.281,1.129,0.469,1.406V14.867h3.516v1.875H178.9V14.867h3.282a5.868,5.868,0,0,1,.234,1.875h3.751V14.867h2.11c0.912,1.094,2.594,1,2.813,2.813a9.968,9.968,0,0,0,2.11-.938h11.487c2.415,0.823,4.561,3.427,7.032,4.22h8.205c2.726,0.591,6.593-.419,9.611.234,2.332,0.505,5.713.178,8.44,0.235,3.494,0.072,8.239.215,11.721,0.469a5.9,5.9,0,0,0,.234-1.875c6.08-.011,13.269.1,16.878,2.579,1.032,0.709,1.61,2.471,2.345,3.516,0.329,0.468,1.106.924,1.406,1.407,1.193,1.918,1.237,4.408,2.11,6.564,1.06,2.618,2.632,5.608,3.047,8.674a2.325,2.325,0,0,0-1.406.469,4.6,4.6,0,0,0-.469.938h-0.7v0.938c1.076,0.548,1.02,1.384.938,3.047h-0.235V48.39l21.567,0.7v-2.11c3.244-1.891,5.406-1.435,10.315-1.407,2.156,2.62,4.33.938,4.219,6.329-0.975.568-1.973,1.118-2.11,2.579A6.222,6.222,0,0,1,309,57.063a3.7,3.7,0,0,0-1.406,2.344,4.863,4.863,0,0,1,.7,2.813,2.557,2.557,0,0,0-1.172,2.11,7.835,7.835,0,0,1,.938,3.282c-0.122.48-1.246,1.4-1.407,1.875q0.469,2.227.938,4.454a4.373,4.373,0,0,0-1.407,2.11,6.581,6.581,0,0,1,.7,4.454c-0.143.37-1,1.412-.938,1.875,0.138,1.013,1.409,2.587,1.172,3.751-0.108.531-1.267,1.681-1.172,2.344,0.121,0.848,1.007,2.23,1.172,3.047,0.208,1.028-.745,1.722-0.938,2.344-0.43,1.388.736,2.4,0.938,3.282,0.27,1.178-1.054,1.707-.938,2.344,0.143,0.785,1.075,2.025,1.173,2.813,0.105,0.853-.943.926-0.7,2.11,0.422,2.085,1.168,3.7,1.172,6.563-1.29.766-2.858,2.352-4.219,2.813h-7.5c-1.187-1.6-2.823-1.253-2.813-4.219,0.059-.227.184-0.089,0-0.235-0.482-.556-1.259-0.509-2.344-0.468-1.638-.962-9.1-0.876-11.487-1.407-1.631-.362-2.9.419-3.516-0.938-1.1-1.511-1.186-4-1.875-5.86-1.709-4.608-2.831-9.427-4.454-14.3-1.877-5.63-4-11.719-5.861-17.347-0.769-2.325-.942-4.368-1.875-6.564-0.313-.736-1.1-1.608-1.407-2.344-1-2.357-1.052-4.785-1.875-7.267A18.9,18.9,0,0,1,257.2,48.39h2.344V47.921c-0.966-1.172-.443-2.13-0.234-3.516C258.3,44.076,257.352,44,256.963,43c1.045-1.352,1.012-6.309-.469-7.033h-4.22c-1.8-3.192-2.96-3.174-7.97-3.047-1.772-1.092-7.153.291-9.611-.234-2.728-.583-6.59.412-9.612-0.234-3.95-.845-9.41-0.475-13.6-0.469-1.537,1.979-4.6,2.639-6.564,4.22-0.426.343-.28,1.618-0.7,1.875h-7.971c-1.334.831-4.029-.468-5.626,0.234l-0.937,1.172c-0.938.564-3.327,0.242-4.689,0.234-0.165,7.421,3.536,11.266,6.095,16.175,3.287,6.3,5.294,12.8,7.736,20.16,1.062,3.2,3.271,6.9,2.579,10.314-9.739,3.713-19.763,7.1-29.3,11.252-4.282,1.865-8.677,3.693-13.128,5.626a58.671,58.671,0,0,1-5.392,2.579H121.467q-1.29-2.461-2.579-4.923h-0.234v0.235c-2.434,1.526-1.722,6.882-1.641,10.783-1.323,2.14.405,9.193-.235,12.19-0.494,2.314-.234,5.727-0.234,8.439q-0.117,5.391-.235,10.784l-0.234,7.5c0.238,0.694,1.376,1.26,1.641,1.876V157.4c-2.368,1.227-8,.5-11.252.469-1.029-.641-3.9-0.235-5.392-0.235L88.648,157.4l-0.234-.7c-0.827-1.3-.1-4.355.469-5.158l1.172-.937v-6.1c1.294-2.09-.331-6.723.234-9.377s-0.394-6.43.235-9.377c0.847-3.973.469-9.372,0.469-13.6,0-3.206.9-7.126,0-9.846-1.253.465-4.717,0.492-5.626-.235-0.56-.859-0.265-3.384-0.234-4.688h3.047V96.915c-1.788-2.09-2.791-6.645-3.985-9.377-2.392-5.472-5.112-11.192-7.5-16.644-1.131-2.579-1.629-5.309-3.047-7.736-0.981-1.679-5.206-4.932-7.033-5.861-0.892-.453-4.005-0.781-4.454-1.407V51.2h-0.7v7.736H58.173a9.629,9.629,0,0,1-.234-2.813H54.187v2.813H50.671V56.126H46.92v2.813H43.4V56.36a14.467,14.467,0,0,0-3.985-.234v2.813H36.137a9.629,9.629,0,0,1-.234-2.813H32.152v2.813H28.635V56.126H24.885v2.813H21.368V56.36a13.5,13.5,0,0,0-3.751-.234V51.437c-1.516-.483-1.021-4.153-0.938-6.095H0.5V44.873C-0.3,43.6.244,36.225,0.27,34.09c3.159-1.049,12.372-.252,16.41-0.234-0.016-6.194-.433-13.921.234-18.988,1.782,0.02,6.421.5,7.267,0,2.529-.88,3.77-3.9,6.564-4.454V0.8h2.579v9.377c1.023,0.37,1.969.58,2.344,1.641,0.365,0.6.094,2.215,0.469,2.813a2.539,2.539,0,0,0,1.407.234v1.641a13.509,13.509,0,0,0,3.751.234V15.1a12.543,12.543,0,0,1,3.516-.234v1.875h3.751V14.867h3.516v1.875h3.751V14.867h3.516v1.875H63.1V14.867h3.282a5.884,5.884,0,0,1,.234,1.875h3.751V14.867h3.282v1.641a14.466,14.466,0,0,0,3.985.234V14.867h3.282v1.641a13.509,13.509,0,0,0,3.751.234V15.1a12.544,12.544,0,0,1,3.516-.234v1.641a13.509,13.509,0,0,0,3.751.234V15.1a12.544,12.544,0,0,1,3.516-.234v1.641a13.509,13.509,0,0,0,3.751.234V15.1a12.544,12.544,0,0,1,3.516-.234v1.875h3.751V14.867h3.516v1.875h3.751V14.867h3.516v1.875H121V14.867h3.282a5.868,5.868,0,0,1,.234,1.875h3.751V14.867h3.282v1.641a13.509,13.509,0,0,0,3.751.234,5.9,5.9,0,0,0,.234-1.875h3.282v1.641a13.509,13.509,0,0,0,3.751.234V15.1a12.539,12.539,0,0,1,3.516-.234v1.641a13.509,13.509,0,0,0,3.751.234V15.1a12.542,12.542,0,0,1,3.516-.234v1.641a13.509,13.509,0,0,0,3.751.234V15.1a0.66,0.66,0,0,0,.234-0.234h1.407V12.054a0.66,0.66,0,0,0,.234-0.235c2.911-.027,4.137-0.844,6.564-0.234V4.553c0.963-.582.776-2.2,0.7-3.751A4.766,4.766,0,0,1,168.82.333V0.567h0.234V4.318l0.7,0.234v7.033ZM150.3,52.14c0.3-2.261,2.092-9.185.468-11.487-0.9-.565-3.348-0.234-4.688-0.234H134.125v0.234h-0.234l3.751,14.3c6.859,1.939,14.4.006,19.457-1.875,2.2-.819,5.556-0.507,5.626-3.516-1.827-2.4-2.455-6.377-3.751-9.142h-0.469c-1.092,1.711-2.611,2.839-3.516,4.923l-1.875,5.626A4.415,4.415,0,0,1,150.3,52.14Zm25.786,37.976c-0.064-3.08-1.5-6.083-2.344-8.674-1.6-4.89-2.354-9.562-4.22-14.065-1.487-3.587-4.242-8.981-4.923-12.893-4.539-.579-9.018,2.56-12.893,3.751-2.819.866-9.357-1.135-11.487,0.234a1.859,1.859,0,0,0-1.406,1.407c0.966,1.272.985,3.081,1.641,4.689,1.59,3.9,3.1,8.3,4.688,12.19q0.352,1.289.7,2.579c0.694,0.931,5.058,2.951,6.329,3.751,2.922,1.838,5.885,3.724,8.908,5.626,1.19,0.748,2.631,2.359,3.985,2.813C167.126,92.213,173.54,90.2,176.087,90.117ZM278.3,63.393c0.135,2.68,1.59,5.254,2.344,7.5,1.3,3.856,2.17,7.629,3.517,11.252,0.459,1.236,1.269,5.9,2.11,6.329H294c0.57-1.689.254-4.693,0.235-6.8,0.7-1.129.214-4.249,0.234-5.861q0.236-6.211.469-12.424H278.3Z"/>
</svg>
