<svg xmlns="http://www.w3.org/2000/svg" width="494" height="148" viewBox="0 0 494 148">
  <defs>
    <style>
      .cls-1 {
        fill: #fff;
        fill-rule: evenodd;
      }
    </style>
  </defs>
  <path id="M4A1" class="cls-1" d="M338.735,33.786a1.56,1.56,0,0,0,.966-0.322h0.321V32.5h7.726c0.506,1.484.346,4.119,0.321,6.116-1.982.671-5.516,0.348-8.047,0.322V37.648h-1.287v3.219h4.828a5.881,5.881,0,0,1,.322,1.931,1.639,1.639,0,0,1,.322.966h37.016V41.189h108.15a0.918,0.918,0,0,1,.322-0.322V37.648h3.541V104.92H489.7V101.7L462.014,88.827v10.3H461.37c-2.875-2.919-7.4-4.534-10.944-6.759-0.846-.532-1.964-1.886-2.9-2.253H418.882V85.608c-2.234-.754-6.212-0.348-9.012-0.322-0.031-4.4-.311-9.331-0.322-14.163-2.346-.776-6.422-0.322-9.335-0.322h-18.99c0.042-2.7.4-6.555-.322-8.691-1.677.584-15.418,0.846-16.738,0-1.658-.565-5.538-4.148-6.759-5.472H344.529q-0.162.483-.322,0.966a4.256,4.256,0,0,0-.322,2.253h-5.15v5.15a5.492,5.492,0,0,1-3.219.966c-3.347,2.073-8.573.548-10.3,4.184-3.945,4.228-.646,11.837-0.322,17.06h-0.965v5.472c4.993,3.361,7.484,7.627,10.943,12.553,4.172,5.94,8.831,11.96,12.876,18.025,2.427,3.64,4.947,8.642,8.368,11.266v0.322h-0.643c-3.055,2.066-7.823,2-11.588,3.219-6.946,2.254-14.926,5.924-23.175,6.115-0.832-1.383-1.743-2.081-1.931-4.184a6.731,6.731,0,0,0,1.609-4.506c-2.9-3.245-5.058-9.671-7.4-13.519-0.99-1.624-1.051-4.075-2.9-4.828-1.447-.917-4.5-0.714-6.116-1.288q-0.16-.966-0.322-1.931a5.921,5.921,0,0,0,2.9-4.185c-1.808-1.786-2.662-4.345-4.184-6.437-1.442-1.981-4.1-3.066-5.794-4.828-10.767.01-24.381,1.118-34.119,0V98.8c1.612,1.534.644,8.721,0.644,11.587v33.8a5.034,5.034,0,0,0,1.609.322V145.8a5.7,5.7,0,0,1-3.219.643c-2.024,1.287-6.994.644-9.978,0.644-7.669,0-19.643,1.143-26.394-.322-2.166-.47-4.327.348-5.793-0.643-1.222-1.912-.366-7.938-0.322-10.622h0.322v-0.322h0.965q-0.161-22.69-.322-45.385l-4.828-.644V86.573h1.931c0.838-2.488.349-6.908,0.322-9.978-1.216-1.994.279-6.1-.322-8.691-0.374-1.614-.928-3.715-1.287-5.472H214.49c-0.286.441-1.33,0.069-3.218,0,0.04,1.9.158,4.4-.322,5.794L200.972,66.3a1.558,1.558,0,0,0-.322-0.966,4.261,4.261,0,0,0-2.253-.322v6.116a3.452,3.452,0,0,1-2.254.966c-7.432-.184-84.068-4.138-91.413-4.184a14.592,14.592,0,0,1-.322-4.184H101.19V57.6a14.56,14.56,0,0,0-4.185-.322v5.15H90.568a18.549,18.549,0,0,1-.322-5.15H67.393v4.828c-1.732.588-4.819,0.347-7.081,0.322a18.546,18.546,0,0,1-.322-5.15H35.849c-0.268-.083-1.02-0.883-1.287-0.966H15.57C11.746,57.5,6,57.282.764,57.283V47.948c5.156,0,11.425-.18,15.128.966H34.561c0.268-.083,1.02-0.883,1.287-0.966H59.668c1.14-3.457.322-9.424,0.322-13.519V5.782a5.9,5.9,0,0,0,.966-2.253c2.9-.954,3.195-2.571,7.725-2.575C70.2,3.276,72.839,4.875,74.474,7.07c5.359,7.2,10.262,14.517,15.45,21.888,1.582,2.247,6.265,6.986,7.081,9.335v9.334a13.228,13.228,0,0,0,3.863.322c0.7-2.066.347-5.749,0.322-8.369a5.888,5.888,0,0,1,1.931-.322,2.17,2.17,0,0,1,1.287-.322v-5.15a17.23,17.23,0,0,1,4.829-.322L197.431,29.6c0.163,1.42.666,1.187,0.966,1.931v6.116c2.815-.04,1.8-0.7,3.218-1.288l9.657-1.609v5.794c1.769,0,2.531.073,3.218-.966,0.358,0.863.015,0.685,0.966,0.966V32.5c-2.448-3.322-3.025-16.158-1.609-21.244,0.53-1.906.133-4.556,1.609-5.472,3.361-2.318,11.05-1.973,16.094-2.253h6.116c4.323-.94,9.451.382,14.162-0.644,1.08-.235,7.09-0.893,8.047-0.644,0.64,0.166,1.376,1.388,1.931,1.609l7.725-.322c6.41-.03,15.061.313,20.922-0.966,6.4-1.4,15.752,1.173,20.279-1.931,0.957,3.488,4.878-.191,4.828,7.081a5.1,5.1,0,0,1,.322,2.575c2.383,0.4,3.95.8,3.862,3.863,1.291,2.042,1.3,9.855,1.288,13.2a4.552,4.552,0,0,0,1.287.322c3.082-2.054,14.726.787,16.094,1.931C338.942,30.4,338.775,32.466,338.735,33.786ZM267.278,9.967c0.245,0.847.386,0.768,0.644,1.609h-36.05c-1.425-.982-10.007-0.441-10.622.644-1.368,1.523-.778,7.841-0.322,9.978h0.644a6.628,6.628,0,0,1,3.218-1.288c0.946,0.9,2.408.847,3.541,1.609l1.61,2.253h9.334c1.784-1.089,10.041-.263,12.875-0.322l19.635-.644c4.316-.008,9.887.518,13.2-0.644a2.58,2.58,0,0,1,0-1.287l5.472-2.575V10.288c-1.837-.61-5.033-0.322-7.4-0.322H267.278Zm-197.954,2.9c0.071,2.392.708,5.109-.322,6.437-1.046.941-3.795,0.7-5.794,0.644V38.292c2.516,0.832,6.884.322,9.978,0.322H94.43V37.97c-2.091-2.115-3.412-4.931-5.15-7.4-2.59-3.685-5.736-7.28-8.369-10.944-0.9-1.248-3.45-6.214-4.506-6.759H69.324ZM301.4,13.507c1.761,1.544,8.562.7,11.588,0.644V13.829a0.915,0.915,0,0,1-.322-0.322H301.4Zm0.322,3.863c0.851,0.568,10.412.566,11.266,0H301.719ZM233.8,29.6v2.9c4.451,1.464,14.261.322,19.635,0.322h43.775c-0.206-1.259-.492-1.171-0.644-2.575C275.908,30.2,254.814,29.628,233.8,29.6ZM67.393,43.442v4.506H90.246V43.764C85.852,42.306,73.007,43.418,67.393,43.442ZM459.117,69.514v4.828c4.338,1.44,16.987.346,22.531,0.322v-5.15H459.117Zm-170.6,9.978c0.529,5.171-.977,7.956-2.9,11.266-0.621,1.072-2.461,3.546-3.54,2.9-0.276-1.122,1.738-2.367,2.253-3.862,0.986-2.864.431-6.74,0.322-9.978a15.9,15.9,0,0,0-4.507-.322c-1.772,1.1-9.985,1.433-12.553,1.609l-3.219,3.541c0.1,2.365.578,10.391,1.61,11.909,1.685,1.081,6.926.365,9.334,0.322,3.244-1.976,10.612,1.353,13.841-.644,2.814-.931,4.5-3.607,6.437-5.472,0.283-3.7.579-8.27-2.253-9.656A8.084,8.084,0,0,0,288.522,79.492ZM220.284,90.114a0.941,0.941,0,0,0,1.288,0h-1.288Zm1.61,0.322c0.553,0.284.411,0.286,0.965,0h-0.965Zm1.931,0.322a0.94,0.94,0,0,0,1.287,0h-1.287Zm1.609,0.322a0.941,0.941,0,0,0,1.288,0h-1.288Zm1.61,0.322a0.94,0.94,0,0,0,1.287,0h-1.287Zm1.609,0.322a0.941,0.941,0,0,0,1.288,0h-1.288Zm1.609,0.322a0.941,0.941,0,0,0,1.288,0h-1.288Zm1.61,0.322a0.94,0.94,0,0,0,1.287,0h-1.287Zm1.609,0.322a0.941,0.941,0,0,0,1.288,0h-1.288Zm1.61,0.322a0.94,0.94,0,0,0,1.287,0h-1.287Zm1.609,0.322c0.553,0.284.411,0.286,0.966,0H236.7Zm1.931,0.322a0.941,0.941,0,0,0,1.288,0h-1.288Zm1.61,0.322a0.94,0.94,0,0,0,1.287,0h-1.287ZM241.85,94.3a0.94,0.94,0,0,0,1.287,0H241.85Zm1.609,0.322a0.941,0.941,0,0,0,1.288,0h-1.288Zm1.61,0.322a0.94,0.94,0,0,0,1.287,0h-1.287Zm1.609,0.322a0.941,0.941,0,0,0,1.288,0h-1.288Zm1.609,0.322a0.941,0.941,0,0,0,1.288,0h-1.288Zm1.61,0.322a0.94,0.94,0,0,0,1.287,0H249.9Zm1.609,0.322a2.5,2.5,0,0,0,2.575.322Zm2.9,0.644a0.941,0.941,0,0,0,1.288,0H254.4Zm1.61,0.322a0.94,0.94,0,0,0,1.287,0h-1.287Zm1.609,0.322a0.94,0.94,0,0,0,1.287,0h-1.287Zm1.609,0.322a0.941,0.941,0,0,0,1.288,0h-1.288Zm1.61,0.322a0.94,0.94,0,0,0,1.287,0h-1.287Z"/>
</svg>
