<svg xmlns="http://www.w3.org/2000/svg" width="190" height="143" viewBox="0 0 190 143">
  <defs>
    <style>
      .cls-1 {
        fill: #fff;
        fill-rule: evenodd;
      }
    </style>
  </defs>
  <path id="Tac" class="cls-1" d="M181.267,26.014c0.2,1.608.778,4.647,1.652,5.9,2.5,3.6,5.643,2.38,7.081,8.263-1.472,1.111-2.142,3.012-3.776,4.013-2.127,1.3-5.037,1.15-7.553,2.125-3.484,1.349-7.6,6.2-7.553,11.1,0.629,1.008.646,2.521,1.18,3.541,2.349,4.483,4.432,8.944,6.609,13.929,2.979,6.819,5.879,14.322,8.5,21.483,0.94,2.573.522,5.225,1.18,8.026,0.7,2.981.408,6.3,0.708,9.915a3.551,3.551,0,0,1,.236,1.653c-0.354,1.364-1.294,2.724-1.652,4.249-2.332.124-4.664,1.3-6.609,2.125a96.945,96.945,0,0,1,4.957,14.4c0.888,0.033.829-.112,1.18,0.472a5.875,5.875,0,0,1,.944,3.069c-1.46,1.157-1.432,1.25-4.249,1.18-1.782,1.094-6.955-.061-9.441.472-1.168.251-3.257-.078-4.72,0.236-3.956.849-8.893,0.707-13.218,0.709-0.943-1.225-1.855-2-2.124-4.014,0.645-.374.594-0.212,0.708-1.18-1.016-1.345-2.651-7.209-2.832-9.207a23.713,23.713,0,0,1-4.956-.944v-4.486c-0.881-1.047-.841-2.617-1.417-4.013-1.373-3.329-2.6-7.048-3.776-10.624q-0.472-2.359-.944-4.721c-1.124-3.041-2.731-6.329-3.777-9.443-1.894-5.642-2.646-11.4-4.956-16.761-1.272-2.951-3.472-5.819-4.957-8.735-1.048.352-2.275,0.124-3.54,0.472l-7.789,2.6c-2.207.623-4.821,0.5-6.844,0.944-2.8.616-8.8-.405-11.094-0.944L92.286,71.1c-6.228-1.512-10.511-3.052-13.453-7.791-1.244-2-1.967-7.424-1.652-10.86,0.081-.88.565-2.573,0.236-3.777a79.8,79.8,0,0,0-3.068-8.026l-0.708-.236v2.833H71.988v3.305H67.739V44.664H64.671v1.653a16.479,16.479,0,0,1-4.484.236V44.664H57.118v1.889H52.87a5.92,5.92,0,0,1-.236-1.889H49.565v1.889H45.317V44.664H42.248v1.889H38a5.923,5.923,0,0,1-.236-1.889H34.7v2.125H32.1c-1.4-1.762-4.034-2.7-5.9-4.013-1.231-.865-2.008-1.922-3.54-2.6a13.478,13.478,0,0,0-.472-2.6l0.236-10.859c-2.2-.738-6.083-0.256-8.733-0.236V27.9H0V12.086c3.065-1.02,9.964-.255,13.689-0.236a4.754,4.754,0,0,0,.236,1.652c2.074-.7,5.744-0.256,8.261-0.236V9.961c2.1-.689,5.723-0.236,8.261-0.236h74.82a12.386,12.386,0,0,1,1.888-.472,5.582,5.582,0,0,1,.236-1.889c2.861-.953,9.254-0.255,12.746-0.236,1.207,2.574,1.186,2.283,4.956,2.125a0.678,0.678,0,0,1,.236-0.236c-0.031-.95-0.128-1.291.472-1.653,1.114-.738,4.932-0.259,6.137,0-0.03,2.614,2.294,2.031,4.72,1.889V7.6c1.38-.725,4.262-0.5,6.373-0.472,1.207,2.574,1.186,2.283,4.957,2.125q0.117-.944.236-1.889H148.7c1.185-.762,10.019-0.316,11.565,0V9.253h1.888c0.089-2.718,1.793-8.221,3.776-8.735,0.571-.374,6.166-0.6,6.373-0.472,0.538,0.9-.093,2.562.236,3.777,0.479,1.765,1.429,3.729,1.888,5.666a1.977,1.977,0,0,0-1.18.236l3.069,0.472q1.3,3.895,2.6,7.791a1.591,1.591,0,0,0,.944.236c0.747-1,1.98-1.215,3.776-1.18,1.454,1.08,5.337,3.326,3.069,6.374-0.48,1.527-1.594,1.655-2.6,2.6A14.569,14.569,0,0,1,181.267,26.014ZM23.367,9.253A36.957,36.957,0,0,1,24.311,1.7h0.472c0.8-.534,5.689-0.465,6.137-0.236,0.678,0.264.435,0.041,0.708,0.708,0.52,0.661,2.1,6.481,1.888,6.846C32.3,9.789,25.408,9.279,23.367,9.253Zm159.081,8.735c-0.238.163-.944,0.3-1.18,0.472a2.719,2.719,0,0,0-1.888,1.889c1.523,2.345.1,4.813,4.248,4.721,0.772-.613,1.507-0.6,1.889-1.652,1.149-1.233.252-4.076-.709-4.721Zm-85.2,27.857c-1.835,1.076-5.5-.347-7.789.236-1.721.438-6.928,3.713-7.317,5.194-1.459,2.138-1.645,8.4-.236,10.623l2.6,2.361c0.917,0.915,2.117,2.521,3.3,3.069,2.95,1.361,6.565.431,10.149,1.18a44.287,44.287,0,0,0,25.727-2.833l2.124-4.249c0.834-2.962-.342-5.866-0.472-8.735-1.741-1.264-2.932-4.677-5.192-5.194-1.957,2.475-6.192,4.394-9.913,5.194-0.411,8.07-1.688,12.925-8.733,14.637V66.383l3.3-3.069c0.886-1.379,2.537-8.259,1.652-11.1-0.641-2.055-2.026-4.056-2.6-6.374H97.242Z"/>
</svg>
