<svg xmlns="http://www.w3.org/2000/svg" width="493" height="101" viewBox="0 0 493 101">
  <defs>
    <style>
      .cls-1 {
        fill: #fff;
        fill-rule: evenodd;
      }
    </style>
  </defs>
  <path id="Balista" class="cls-1" d="M280.009,0.174h8.007v1a1.613,1.613,0,0,1,1,.334c0.48,0.719.371,2.444,0.333,3.678-0.944.6-.9,4.08-1,5.35,2.783,1.234,2.457,2.053,7.006,2.006,0.666-2.114,5.317-1.46,8.007-1.338,0.78,1.535,1.969,1.455,4.337,1.338,2.131-1.6,5.884-1.494,8.674-2.341,3.08-.935,6.889-2.236,10.009-3.01h4.671c4.577-1,10.615-.225,15.347-0.334,1.863,3.619.7,16.11,0.667,21.4a1.214,1.214,0,0,0-.334.669H343.4c-2.9-1.75-12.565,1.188-17.015,0-7.2-1.922-14.035-5.273-22.687-5.35-0.115,3.155-.645,8.532,1.335,9.7a3.608,3.608,0,0,0,2,.334c0.695-2.04,1.166-2.163,4-2.006,0.294,0.8.254,1.24,1,1.672a3.608,3.608,0,0,0,2,.334c0.731-2.128,1.4-2.171,4.337-2.006v3.344H244.311v-3.01a12.3,12.3,0,0,1,3.669-.334c0.579,1.735.555,2.086,3,2.006,0.7-2.04,1.166-2.163,4-2.006,0.578,1.735.554,2.086,3,2.006,0.7-2.04,1.166-2.163,4-2.006a8.42,8.42,0,0,0,.667,1.672v-9.7c-9.9-.138-16.672,3.331-24.688,5.35-3.323.837-9.858,0.3-12.678-.334l-7.006.334q-0.168-.5-0.334-1c-0.7-1.108-.334-3.99-0.334-5.685V7.865a4.517,4.517,0,0,1,3.337-1c2.217,1.336,13.712-.728,17.682.334,7.735,2.07,14.467,5.271,24.021,5.35a1.617,1.617,0,0,1,.334-1c1.4-.906,5.6-0.379,7.673-0.334,0.941,1.8,3.611,1.456,6.339,1.338,0.8-1.584,2.221-1.263,2.669-3.01-0.745-1.171-1.024-6.394-1-8.36h1.335v-1ZM271,23.581c-0.045,3.082-.507,7.551.333,10.032A1.142,1.142,0,0,0,272,33.279c1.32-1.84.656-1.811,4-1.672,0.579,1.735.555,2.086,3,2.006,0.695-2.04,1.166-2.163,4-2.006,0.294,0.8.254,1.24,1,1.672a3.608,3.608,0,0,0,2,.334c0.7-2.04,1.166-2.163,4-2.006,0.293,0.8.253,1.24,1,1.672a3.6,3.6,0,0,0,2,.334c0.5-1.5.265-1.946,2.336-2.006V23.581c-5.488,0-9.4,2.829-15.347,1.338A27.759,27.759,0,0,0,271,23.581ZM484.523,81.766h-5.338a97.908,97.908,0,0,0-6.673-8.694h-3.336c-2.462-1.586-5.3-2.146-8.007-3.344-6.313-2.793-12.66-6.971-19.017-9.7l-3-.669c-3.512-1.747-9.353-6.156-13.346-6.688-1.746-.233-4.254,1.191-6.339,1.337-0.586-1.387-.639-1.943-2.669-2.006-1.164-.742-7.757-0.691-9.675-0.669v1.338h1.668l-0.333,22.739H366.085v0.334c2.413,1.574,3.344,4.029,5,6.354,3.327,4.657,8.067,10,10.676,15.048-5.829.642-10.945,3.4-17.348,3.678a3.215,3.215,0,0,0-1-1.672,8.189,8.189,0,0,0,1-3.344c-1.926-1.569-3.564-5.391-4.671-7.691l-3.67-.334a1.14,1.14,0,0,0-.334-0.669,10.56,10.56,0,0,0,1.669-2.675c-2.893-1.881-4.116-3.99-4-9.029l-14.68.334c-3.669-1-7.37-3.361-11.009-4.347l-12.678-.334v3.344a14.455,14.455,0,0,0-4.337.334c0.3,0.9-.169,3.2.333,4.347l1.668,1.338v4.013H276.673a11.005,11.005,0,0,1-.334-3.344c1.67-1.809,2.076-3.289,2-7.022H273.67a0.944,0.944,0,0,0-.334-0.334c-0.4-5.9-3.51-8.609-6.672-11.7q-0.834-1-1.668-2.006H234.3c-1.087,2.035-5.616,1.446-8.675,1.338-1.141-.591-4.391.839-6.339,0l-1-1.338H204.275c-0.893-1.957-2.441-1.818-5.338-1.672V58.024c-0.993-1.437-.432-2-3-2.006-0.366,2.253-.914,2.5-3.67,2.341-0.288-1.85-.384-2.38-2.669-2.341a10.746,10.746,0,0,1-.667,2.006,6.17,6.17,0,0,1-3,.334c-0.582-1.774-.531-2.367-3-2.341v0.334h-0.334a2.8,2.8,0,0,1-.333,1.672,6.173,6.173,0,0,1-3,.334q-0.333-1.17-.667-2.341a1.149,1.149,0,0,0-.668.334c-1.051,1.655-.415,2.1-3.336,2.006-0.981-2.883-2.221-3.16-4-5.016H140.886c-0.889.3-1.456,1.494-3.337,1-6.618-1.729-18.545-1-27.691-1a20.289,20.289,0,0,1-1,2.341c-0.608-.66-1.344-1.4-2-2.006V45.651a3.483,3.483,0,0,1,2-.669c1.167,2.565,3.6,1.672,7.007,1.672h18.683a7.224,7.224,0,0,0,.333-2.341H4.432v2.675c-1.61-.348-1.468-0.942-3.67-1V33.613c1.866-.073,2.648-0.855,3.336-0.669a4.435,4.435,0,0,1,.334,2.341H130.543c5.886,0,9.7-.993,14.013,0h66.058q0.166-.5.334-1a11.624,11.624,0,0,1,5.671-.334c0.246,0.081.834,0.939,1,1l10.343-.334a3,3,0,0,0,1.668.669h70.062c6.231,0,14.319-.05,19.684,0,3.781,0,7.563,1,11.343,1,0.7,0.282,1.811,1.261,2.669,1.672a6.111,6.111,0,0,0,.334,3.01c0.964,0.556,2.677-.092,4,0.334,0.814,0.262,2.218,1.487,3,1.672,1.575,0.372,3.993-.539,6,0,6.023,1.613,20.244,7.087,22.354,11.7V59.7a10.769,10.769,0,0,0-2,.669h27.691V52.674h1V50.667c-1.336-.107-3.735-0.331-4.671-1-1.23-1.927-.378-7.984-0.334-10.7,3.317-1.1,9.051-.334,13.012-0.334h27.691c2.548-1.751,6.186.685,9.675-.334a31.564,31.564,0,0,1,5.672-1c0.622-.013,1.514,1.175,2,1.338,1.615,0.537,6.974.3,8.007-.334,4.023-1.464,7.019-8.065,10.676-9.7h16.681V26.256c1.71-.582,4.754-0.36,7.007-0.334,1.42,4.27.362,11.738,0.333,16.72,1.28,2.054.334,8.185,0.334,11.035v20.4a29.294,29.294,0,0,1,0,9.363h-7.006A5.272,5.272,0,0,1,484.523,81.766ZM445.155,47.658q-0.334,3.009-.667,6.019c4.527,1.772,9.048,3.386,13.678,5.35,2.516,1.068,4.669,2.764,8.007,3.01,1.419-4.27.361-13.865,0.334-19.06,2.788-1.506,4.174-.316,4-5.016a8.358,8.358,0,0,0-2.669-.334c-0.574.885-9.444,9.779-10.009,10.032H445.155ZM143.221,44.314q-0.166,1.17-.334,2.341h60.387V44.314H143.221ZM340.729,60.7v1h-0.667c-0.9.539-8.95,0.041-11.343,0v0.334l10.342,8.36c8.867,0.174,9.092-1.909,13.345-6.019V63.04c-1.176-1.2-1.053-1.719-3.67-1.672-0.207.629-.446,2.049-0.667,2.675-1.6.793-3.992,3.83-5.672,3.009,1.447-.391,1.809-1.053,2-2.675-1.642-.635-1.459-2-2-3.678h-1.668Z"/>
</svg>
