<svg xmlns="http://www.w3.org/2000/svg" width="488" height="140" viewBox="0 0 488 140">
  <defs>
    <style>
      .cls-1 {
        fill: #fff;
        fill-rule: evenodd;
      }
    </style>
  </defs>
  <path id="Scar" class="cls-1" d="M121.521,0.07c-0.017,6.708-1.109,17.951,0,23.125,0.363,1.7.962,2.781,0.757,4.928h3.407c-0.07-2.672.244-12.05,0.379-12.131,0.161-.037,3.9-0.043,5.3,0,0.023,0.863-.049,2.172,0,2.274a23.282,23.282,0,0,0,3.786,0V15.992c1.146-.031,2.905-0.023,4.543,0,0.025,0.957-.042,2.262,0,2.274s3.6,0,4.165,0c0.022-.664-0.042-1.195,0-2.274H148.4c0.013,0.809,0,1.516,0,2.274h3.786c0-.729-0.007-1.845,0-2.274,0-.043,3.859-0.015,4.543,0,0,0.684-.041,1.195,0,2.274h3.786V15.992c1.126-.02,2.906-0.023,4.544,0,0.015,1.133-.068,2.271,0,2.274,0.084,0,2.322.015,3.786,0V15.992c1.136-.031,2.905-0.023,4.543,0a18.828,18.828,0,0,0,0,2.274c0.074,0.01,2.542-.008,4.165,0,0.013-.768-0.014-1.506,0-2.274H182.1v2.274c1.053,0,2.435.008,3.786,0,0-.7-0.042-1.195,0-2.274h4.543c0,0.809.007,1.506,0,2.274h3.786V15.992c1.065-.051,2.906-0.023,4.544,0a17.839,17.839,0,0,0,0,2.272c0.253-.005,2,0.01,3.789,0V15.992c1.095,0,2.905-.023,4.543,0,0.017,0.977-.063,2.247,0,2.274s2.125,0.006,3.786,0V15.992c1.085,0,2.906-.023,4.543,0,0.026,1.155-.022,2.232,0,2.274s2.569,0,4.165,0c0-.658-0.013-1.219,0-2.274h4.543c0.012,0.787.012,1.512,0,2.274h3.786c0-.859,0-2.188,0-2.274,0-.06,2.408.02,4.543,0,0.022,0.74-.041,1.195,0,2.274h3.787V15.992c1.069,0.005,2.905-.023,4.543,0,0.012,1.063-.013,2.172,0,2.274,0,0.037,2.069-.013,3.786,0V15.992c1.244,0,2.905-.023,4.543,0,0.01,0.96-.015,2.141,0,2.274,0.005,0.041,2.465-.028,4.165,0,0.036-.732-0.02-1.516,0-2.274h4.543v2.274c0.965,0,2.435.008,3.786,0,0.015-.686-0.041-1.195,0-2.274h4.922c0.042,0.811-.036,1.516,0,2.274h3.408V15.992c1.185-.008,2.9-0.023,4.543,0,0,1.011,0,2.2,0,2.274,0,0.044,2.083.014,3.786,0,0-.632,0-1.264.008-2.268,1.088-.028,2.9-0.029,4.535-0.006,0,0.983,0,2.219,0,2.274,0,0.01,2.113-.014,3.786,0V15.992c1.117-.018,2.906-0.023,4.543,0,0.012,1.153-.041,2.2,0,2.274,0.024,0.04,2.67-.011,4.165,0-0.017-.716,0-1.538,0-2.274h4.543c0.052,0.822,0,1.5,0,2.274h3.408c0.013-.851-0.033-2.258,0-2.274s3.1-.007,5.3,0c0.021,0.737.021,1.188,0,2.274h3.408V15.992c1.1,0.007,2.905-.023,4.543,0,0.01,0.944,0,2.232,0,2.274,0,0.023,2.045-.012,3.786,0V15.992c1.116-.014,2.906-0.023,4.543,0,0.013,0.884-.022,2.286,0,2.274,0,0,2.008.019,3.787,0V15.992c1.246-.01,3.191,0,4.921,0v2.274c0.665,0,.642,0,1.515,0V14.475c-0.329-.824-0.985-0.874-1.136-2.654,1.652-1.6,2.7-2.639,2.65-6.065a3.285,3.285,0,0,0,.379-1.9h1.514V4.619c0.623,0.983-.18,2.857.379,4.17l1.514,1.137v6.065h7.951V14.475c16.012-.359,23.092,5.179,32.56,10.994l9.087,3.033c0.469,0.7.412,2.162,0.378,3.412-1.576,2.308-.454,4.15-0.378,6.824h32.181a1.835,1.835,0,0,1,.379-1.137c1.519-.987,6.062-0.429,8.329-0.379a1.367,1.367,0,0,0,.757.379V31.155h43.54V28.5h0.379V28.122l12.494-1.137V37.6c-0.679,2.548-2,5.508-2.65,8.34-1.166,5.11-.5,10.467-1.515,15.164-0.753,3.5.105,9.1,0.757,12.131v4.549c1.735,7.455,3.4,13.766,3.408,23.5-3.951-.374-9.332-0.626-12.873-1.9a7.655,7.655,0,0,0-.378-2.654L467.946,95.6l-5.679-6.065a91.836,91.836,0,0,1-17.038-23.883l-13.63-.379V49.731h-0.757c-1.585,1.028-6.36.429-8.708,0.379a1.835,1.835,0,0,0-.378-1.137c-0.808-.505-12.822-0.379-31.8-0.379v2.275c-2.431.823-6.762,0.409-9.844,0.379a1.069,1.069,0,0,1-.379.379c-0.075,2-3.354,13.832-4.164,14.405h-7.951c-1,.636-2.763-0.1-4.165.379-0.881.3-4.492,1.632-6.436,0.758q-0.189-.569-0.379-1.137h-6.057c-0.383,1.394-.249,1.334-1.893,1.516a1.077,1.077,0,0,0-.379-0.379V66.031H333.54c-0.864,1.089-2.642,1.562-3.407,2.654-1.808,2.581-1.182,8.63-1.136,12.889,4.535,3.069,6.694,7.26,9.844,11.752,2.977,4.245,6.573,8.546,9.465,12.889,3.36,5.046,6.261,10.727,10.6,14.784v0.759H358.15c-2.133,1.577-5.476,1.415-8.33,2.274-6.49,1.954-13.791,3.937-21.2,4.549q-1.137-1.705-2.272-3.412a8.832,8.832,0,0,0,1.514-5.686c-2.874-2.44-5.895-12.718-9.465-13.268-0.959-.641-3.1-0.729-4.543-0.758a3.966,3.966,0,0,1-.757-2.275,6.473,6.473,0,0,0,2.65-3.791c-3.267-2.127-5.4-7.387-9.087-8.719-7.081-2.561-18.99,1.39-26.881-.379-12.043-2.7-24.623-3.846-36.346-6.824-6.681-1.7-13.792-1.4-19.687-3.791a9.5,9.5,0,0,1-.379-3.033c2.359-2.409,4.119-10.476,2.272-15.543-0.461-1.262-2.2-1.7-2.651-2.654l-0.378-10.614h-6.815v9.1h-4.543V54.659h-3.787v2.274h-4.543a6.932,6.932,0,0,1-.378-2.274h-3.408v2.274h-4.543a6.956,6.956,0,0,1-.379-2.274h-3.407v1.9a15.538,15.538,0,0,1-4.544.379,6.959,6.959,0,0,1-.378-2.274h-3.408v1.9a17.1,17.1,0,0,1-4.921.379V54.659h-3.787v2.274h-4.543v-1.9a12.433,12.433,0,0,0-3.786-.379v2.274H160.9a6.956,6.956,0,0,1-.379-2.274H157.11v2.274h-4.543a6.929,6.929,0,0,1-.379-2.274H148.78v1.9a17.093,17.093,0,0,1-4.921.379V54.659h-3.408v1.9a17.1,17.1,0,0,1-4.922.379V54.659h-3.786v2.274H127.2c-0.724-2.138-.408-5.95-0.379-8.719H104.484V47.835h-0.379V46.7c-16.364,0-50.594-.57-49.6-0.379v3.033h-5.3c-0.758-2.212-3.281-1.515-6.058-1.516H25.733c-2,1.253-4.228-.338-6.436-0.379H0.745L0.367,46.319a5.023,5.023,0,0,1-.379-2.654c4.308-2.614,15.584-1.19,21.959-1.137V39.874C17.194,38.29,6.534,39.465.745,39.5a4.375,4.375,0,0,1-.757-2.654c4.9-1.631,19.092-.407,25.367-0.379,1.321,0.831,4.814.379,6.815,0.379H48.828c0.883-2.174,2.2-2.063,5.3-1.9v0.379h0.379a4.913,4.913,0,0,0,.379,2.654h49.219c0.894-2.713,10.429-1.635,14.008-1.516V33.809c-4.09,0-8.241.181-11.358,0V28.122c3.117-.181,7.268,0,11.358,0V27.364a6.923,6.923,0,0,0-2.271-.379c0.311-1.355.775-.759,1.136-1.516,0.762-1.605.088-3.151,0.378-4.17h1.136c-0.147-2.632-1.369-3.046-1.893-4.928V0.07A44.594,44.594,0,0,1,121.521.07ZM355.5,19.024v1.137h1.135V19.024H355.5ZM122.278,33.809v2.654h3.407V33.809h-3.407ZM299.087,71.718c0.233,3.71,1.361,7.05-.378,10.236-0.628,1.149-1.952,2.088-2.651,3.412l-3.407.379V85.365a19.7,19.7,0,0,0,2.65-2.654c0.476-10.6-5.7-11.622-17.037-11.373-1.968,3.013-1.585,7.09-1.515,12.131h0.379a4.441,4.441,0,0,0,1.893,2.654c2.448,1.866,18.091.8,22.716,0.758,2.376-3.55,1.97-7.635,1.893-13.647a9.486,9.486,0,0,1-1.893-1.516h-2.65ZM229.8,83.47c2.363,0.012,29.7,5.115,40.89,7.582v7.961c1.243,2,.378,7.79.378,10.615V137.3a1.831,1.831,0,0,1,1.136.379,1.935,1.935,0,0,1,.379,1.138h-0.379V139.2c-13.421,1.532-29.6.46-42.782,0.379-0.888-2.632-.409-7.317-0.379-10.615,1.392-.383,1.332-0.249,1.514-1.9-1.449-2.34-.378-9.27-0.378-12.51Q229.992,99.014,229.8,83.47Z"/>
</svg>
