<svg xmlns="http://www.w3.org/2000/svg" width="189" height="139" viewBox="0 0 189 139">
  <defs>
    <style>
      .cls-1 {
        fill: #fff;
        fill-rule: evenodd;
      }
    </style>
  </defs>
  <path id="five-Eight" class="cls-1" d="M74.437,2.514V0.834l0.421-.21c1.038-.849,5.98-0.721,6.729.21,0.186,0.295.228,1.177,0.421,1.47,0.844,0.546,3.367.238,4.626,0.21a8.139,8.139,0,0,1,.21-1.89h0.21V0.414c1.594-.215,5.531-0.722,6.729.21,0.212,0.342.2,1.341,0.421,1.68,0.844,0.546,3.367.238,4.626,0.21V2.094c0.186-.295.228-1.177,0.421-1.47,0.984-.738,5.76-0.772,6.729,0,0.183,0.31.126,1.667,0.421,1.89h4.626V2.3h0.21a3.261,3.261,0,0,1,.211-1.68c0.983-.738,5.76-0.772,6.729,0,0.171,0.286-.015,1.071.21,1.47,0.444,0.784,3.623.461,4.837,0.42V2.3h0.21a3.251,3.251,0,0,1,.21-1.68c1.171-.854,5.191-0.532,6.729-0.21,0.842,2.78,1.583,2.245,5.047,2.1V2.3h0.211a8.135,8.135,0,0,1,.21-1.89h0.841c0.576-.376,2.021-0.21,2.944-0.21,2.083,0,7.7-.463,8.832.42,0.327,0.541.084,1.984,0.42,2.52,1,0.621,3.828.21,5.258,0.21h13.248c1.225,0.91,7.489,1.535,9.462,1.68,1.951,3.384,4.766,6.337,6.73,9.659q0.42,1.47.841,2.94c0.572,1.549,1.461,3.45,1.892,5.039,0.517,1.9-.02,3.667,0,5.879h-1.051v0.21c0.722,0.67.071,1.6,0.42,2.73,0.36,1.164,1.482,2.457,1.893,3.57a13.771,13.771,0,0,1-1.262,11.129c-0.534.873-.54,1.841-1.472,2.31-0.654.384-1.812-.021-2.733,0.21-1.248.313-2.806,0.581-4.206,1.05-3.215,1.078-6.053,3.348-9.463,4.2-0.261,1.656-1.642,4.156-1.051,6.3,1.527,5.547,4.315,11.21,6.518,16.378,1.638,3.841,2.481,8.131,4.416,11.759,1.275,2.389,4.644,4.71,5.678,7.139q0.315,3.674.631,7.349c1.064,3.822,2.573,7.868,3.575,11.758v2.1c0.374,1.673,1.134,4.638.631,6.719-0.566,2.336-1.391,4.779-1.893,6.929-1.494.459-4.449,0-5.678,0.84a3.937,3.937,0,0,1,.631,1.05,2.732,2.732,0,0,1,1.052,0,14.776,14.776,0,0,1,1.051,3.57,7.96,7.96,0,0,1-1.051,1.05c-1.8,1.335-5.881.082-8.412,0.63-2.361.51-5.176-.142-7.78,0.42a51.465,51.465,0,0,1-9.673.629c-1.734.01-5.343,0.81-6.519,0.21a2.522,2.522,0,0,1-1.683-1.259,7.382,7.382,0,0,1-1.051-3.15,1.017,1.017,0,0,0,.631-0.21,0.754,0.754,0,0,0,.21-0.42h-2.1c-1,.641-3.6.441-5.046,0.42a6.6,6.6,0,0,0-1.472-1.89c0.229-.806.881-1.45,1.051-2.1,0.33-1.266-.556-4.108-0.841-5.249q-0.21-2.1-.421-4.2c-1.036-3.5-3.32-8.067-4-11.549-0.344-1.772,1.141-4.971.42-6.509a35.291,35.291,0,0,0-2.1-2.94c-1.832-2.932-3.2-5.888-5.047-8.819a14.881,14.881,0,0,1-1.683-2.31V79.575c-1.242-.8-2.177-2.151-3.364-2.94-1.323-.879-3.16-0.7-4.626-1.47a5.738,5.738,0,0,0-1.052-.84l-7.57-.21-15.982.21H88.526c-3.193-.873-7.113-2.847-8.622-5.459-1.191-2.062-1.379-4.512-2.313-6.719-0.846-2-2.319-4.108-3.154-6.089-0.482-1.143-.4-2.374-1.051-3.359a7.554,7.554,0,0,0-2.1-1.47,18.315,18.315,0,0,1-5.257-5.459H64.343v3.36a17.239,17.239,0,0,1-4.626.21,6.9,6.9,0,0,1-.21-2.1H56.352v2.1H51.726a6.9,6.9,0,0,1-.21-2.1H48.361v2.1H43.735a6.9,6.9,0,0,1-.21-2.1H40.371v2.1H35.744a6.9,6.9,0,0,1-.21-2.1H32.38v2.1H27.753v-1.89a12.135,12.135,0,0,0-3.365-.21v2.1H20.6a36.727,36.727,0,0,1-2.313-5.249,1.043,1.043,0,0,0,1.051-.84c-0.5-.674-0.527-1.861-1.051-2.52-0.367-.238-1.194.056-1.682-0.21l-0.841-1.47H8.407c-1.218-.77-5.115-0.935-6.729-1.26A28.457,28.457,0,0,1,.206,35.27L0,25.821V5.664c7.065,0.009,14.5-.178,21.239-0.21V3.564c2.908-.955,9.317-0.21,12.827-0.21H62.24a14.458,14.458,0,0,1,.21-2.94h0.841c1.122-.771,5.524-0.3,6.1.42,0.186,0.295.228,1.177,0.421,1.47C70.654,2.851,73.178,2.542,74.437,2.514ZM106.4,49.548l-22.08.21c-1.1,1.89-3.167,3.949-3.575,6.3,0.762,1.016.739,2.5,1.262,3.78,1.266,3.091,2.8,6.717,5.678,8.189,3.152,1.611,8.453,1.26,13.037,1.26,8.453,0,20.735,2.541,20.608-6.509,0.343-.637-0.31-2.119-0.631-2.94-0.706-1.809-1.625-3.834-2.313-5.669-0.534-1.425-.574-3.322-1.472-4.41-0.591-.389-2.2-0.237-3.154-0.21a1.075,1.075,0,0,0-.631-0.21,63.028,63.028,0,0,0-2.734,8.819c-0.559,2.193-.381,4.412-1.472,6.089a21.449,21.449,0,0,1-2.733,2.73c-0.635.635-.785,1.258-1.893,1.47-0.534-.784-1.246-0.978-1.472-2.1C108.037,62.962,106.964,56.818,106.4,49.548Z"/>
</svg>
