<svg xmlns="http://www.w3.org/2000/svg" width="491" height="107" viewBox="0 0 491 107">
  <defs>
    <style>
      .cls-1 {
        fill: #fff;
        fill-rule: evenodd;
      }
    </style>
  </defs>
  <path id="Gauge" class="cls-1" d="M404.327,31.4v-1.77c4.932-1.618,18.92-.354,25.187-0.354h55.7V28.213c1.276-.68,3.122-0.75,5.322-0.708,0.7,2.114.354,5.791,0.354,8.5V55.121c-1.517,2.58-.329,7.041-1.064,10.267-0.693,3.043-.735,7.147-1.419,10.267v6.019l-2.838,9.913c-0.906,2.969-.651,7.559-3.193,8.851-0.786.5-3.309,0.537-4.257,0.708a4.664,4.664,0,0,1-.709-2.832,4.85,4.85,0,0,0,1.419-2.832c-6.881-4.376-12.608-10.972-19.512-15.224l-2.129-.354a24.785,24.785,0,0,1-3.547-2.478c-2.976-2.135-7.934-7.476-11.352-8.5H417.807V59.37l1.065-.708c0.817-1.285.692-3.151,0.709-5.311-3.775-1.261-10.417-.384-14.9-0.354a1,1,0,0,0-.354-0.354,5.485,5.485,0,0,0-.355-2.832c-2.044-1.3-8.47-.4-11.352-0.354V49.1h-0.355v0.354c-0.777.532-1.456,2.133-2.129,2.478H376.3a9.853,9.853,0,0,0-3.548-2.832V49.81c-2.5,3.6-.571,10.161,1.065,12.746,3.41,5.391,7.921,10.558,11.352,15.932,3.993,6.253,7.417,13.51,12.771,18.411q-0.177,1.77-.355,3.54l-1.064.354c-1.57,1.215-3.884,1.079-6.031,1.771-4.454,1.434-18.882,7.8-20.93,2.124,1.048-1.681-.569-4.569-1.065-6.019q-0.531-2.478-1.064-4.957c-0.551-1.348-4.948-8.147-6.031-8.851-1.572-1.022-3.815-.341-4.966-1.77a6.106,6.106,0,0,0,2.128-4.6c-1.055-1.173-.919-2.782-1.774-4.249-2.83-4.859-9.573-7.5-15.964-8.851a30.935,30.935,0,0,0-1.774-3.541c-4.831,3.336-18.006.068-21.994-1.77-2.341-1.079-4.415-3.524-6.741-4.6-5.564-2.581-12.369-3.818-17.383-6.727H250.717c-4.6,0-10.186.416-14.19-.354-0.77-2.915-3.273-2.124-6.741-2.124H133.647v4.957c-3.211,1.075-8.888.383-12.771,0.354-2.938,2.245-7.082-.928-10.288,0-1.334.386-3.785,1.835-6.386,1.062-0.482-.143-2.385-1.216-3.192-1.062-1.89.36-4.843,1.941-7.805,1.062a16.162,16.162,0,0,0-2.838-1.062c-0.892-.026-2.528.888-3.193,1.062-2.692.707-4.925-.672-6.386-1.062-1.627-.435-2.8.492-3.548,0.708-2.282.663-5.432-.363-6.74-0.708-3.872-1.02-9.613,1.252-12.417-.708-0.583-.877-0.4-3.151-0.355-4.6H52.053v3.187c-9.254.026-18.251-.693-27.671-0.708-2.691-5.514-1.8-12.2-.355-18.056a14.606,14.606,0,0,1,4.257-.354l0.355-3.54c-2.37-.8-6.592-0.382-9.578-0.354-1.528,2.438-16.8.771-18.447-.354-1.1-1.731-.395-11.264-0.355-14.162C3.4,11.889,2.4,11.486,3.806,10.865h7.1c6.493,0,11.041.709,17.738,0.708V1.305c2.508-.034,3.249.578,4.967,1.062V8.74h0.355c1.857,1.19,7.634.4,10.288,0.354a7.6,7.6,0,0,1,.355,2.478h14.19l0.355-1.062H63.76v1.062H196.439l31.574-.354c4.024,0,10.607.021,12.061-2.124,0.655-1.082.038-3.884,0.71-4.957,1.857-1.19,7.634-.4,10.288-0.354,1.385,3,3.274-.756,5.321,0l0.355,1.062c1.806,0.943,3.053-.867,3.547-1.062,1.658-.653,1.626.8,2.129,1.062,1.553,0.8,3.6-.929,5.321-1.062,2.206,3.377,3.4-1.092,5.676,0q0.179,0.531.355,1.062c2.62,1.085,2.767-1.8,4.967-1.062,1.153,0.385.967,1.071,3.547,1.062,0.468-1.19.547-1.026,2.129-1.062,2.408,3.192,3.429-.838,5.676,0,0.478,0.178,1.752,2.015,3.548,1.062,0.524-.278.452-1.689,2.128-1.062,1.092,0.409.149,1.059,3.193,1.062a1,1,0,0,1,.355-0.354c-0.05-1.3-.155-3.142.354-3.895,1.609-1.036,6.519-.4,8.869-0.354,0.832,2.458.384,6.834,0.355,9.913h0.355v0.354c8.352,0.163,16.224,2.816,22.7,4.957,9.584,3.166,18.825,4.975,28.381,8.143,4.89,1.621,9.877,4.309,14.9,5.665h15.609c0.841,1.083,2.052,1.651,2.838,2.832C395.692,30.76,401.114,31.343,404.327,31.4ZM57.375,26.443c-0.528,1.543-.382,4.274-0.355,6.373h0.71C57.786,31.007,58.143,27.606,57.375,26.443Zm76.272,6.373H236.172V29.983a17.549,17.549,0,0,0-4.967-.354c-1.645-1-5.177-.012-7.449-0.354-4.537-.683-10.491.314-15.255-0.708-4.679-1-10.873-.352-15.609-1.062h-7.45c-4.543-.975-9.928.358-14.9-0.708-3.392-.728-8.424-0.354-12.417-0.354H134C133.474,27.986,133.621,30.717,133.647,32.816Zm183.41,15.932a39.472,39.472,0,0,0,0,6.019c3.223,2.486,4.683,4.937,10.642,4.957a8.884,8.884,0,0,1,1.419-1.77,60.2,60.2,0,0,0-.354-7.435l-2.129-1.77h-9.578Zm15.609,0c-0.34,1.48.958,3.409,0.355,5.665-0.5,1.884-3.4,5.228-2.838,5.665,2.48,1.527,9.58-1.165,10.642-2.832,3.21-4.007-2.948-6.821-4.612-8.5h-3.547Z"/>
</svg>
