<svg xmlns="http://www.w3.org/2000/svg" width="357" height="147" viewBox="0 0 357 147">
  <defs>
    <style>
      .cls-1 {
        fill: #fff;
        fill-rule: evenodd;
      }
    </style>
  </defs>
  <path id="VEL" class="cls-1" d="M213.967,4.51h0.765v7.655h1.021V12.42h0.255l0.51,6.379a14.35,14.35,0,0,0,3.062-.255c0.277-.968.071-1.885,1.021-2.3,1.2-.8,5.331-0.28,6.634,0,0.423,1.242.274,3.451,0.255,5.1h4.337c0.925,1.363,2.483,1.859,2.807,3.827h1.021V24.412h3.572V26.2a4,4,0,0,0,1.276.255l0.255-1.531a31.393,31.393,0,0,1,8.42,0c0.62,1.838.276,5.109,0.255,7.4l-0.765.255c-1.379.9-6.4,0.319-7.91,0v-0.51a1.72,1.72,0,0,1-.255-1.021h-1.276V37.17h93.387V36.4h0.51c0.934-.631,3.6-0.22,4.593,0-0.04-1.144-.217-3.118.255-3.827,1.524-.961,10.708-0.283,13.268-0.255v0.765c1.372-.069,1.136-0.476,1.786-0.765h3.828V71.361c-0.669,3.1.225,6.794-.511,10.206-0.272,1.263.086,3.522-.255,5.1-0.866,4.021-.749,9.167-0.765,13.523-3.748.119-8.913,0.609-9.951-2.041-1.219-1.727-2.059-7.552-1.786-9.951H342.82v-0.51c-1.49-2.311-1.2-6.121-2.041-8.93-1.132-3.772-2.1-8.185-3.062-11.992V44.314h-4.848V44.059h-0.255V43.294H240.758V58.858a4.67,4.67,0,0,1-1.531.255v6.124c-13.107-.086-29.689,0-44.4,0h-12.5c-0.971.391-2.177,1.7-3.062,2.3a6.182,6.182,0,0,0-1.53.766c-1.232,1.591-2.052,11.568-1.276,15.054,1.117,5.023,1.436,10.782,2.551,15.82v4.593c0,5.967-.967,10.661-1.02,16.075h-3.317v18.882c0.278,0.688,1.508,1.352,1.786,2.041v5.1c-2.537.837-6.922,0.255-9.951,0.255H145.33c-0.608-1.147-.542-3.232-0.511-5.1a9.337,9.337,0,0,0,1.787-2.041v-5.614l0.255-12.757c-1.242-.423-3.451-0.275-5.1-0.256,0.463-3.548,2.452-6.729,3.317-9.951V78.25c-9.93.053-23.785,1.168-31.895-1.021-0.405-1.388-1.568-2.354-2.041-3.572-0.79-2.032-1.183-4.3-1.786-6.124-0.677-2.05-.6-4.765-1.786-6.379-1.159-1-2.669-3.127-4.338-3.317-1.024-.664-4.086-0.289-5.613-0.255,0,2.142.017,2.883,0,4.848l-0.766.255c-1.023.648-4.566,0.042-6.379,0-0.254-.543-0.475-1.953-1.021-2.3-0.8-.527-3.079-0.288-4.338-0.255v0.255H84.858A6.037,6.037,0,0,1,84.6,62.43c-1.7.576-4.741,0.276-6.889,0.255-0.363-.784-0.4-2.164-1.276-2.552-0.9-.611-3.384-0.213-4.338,0,0.012,0.668.125,2.008-.255,2.3H64.7V62.175H64.445c0.05-1.058.154-1.64-.51-2.041-0.848-.554-3.281-0.288-4.593-0.255-0.109.774-.159,1.926-0.765,2.3-1.157.747-4.688,0.289-6.379,0.255-0.363-.784-0.4-2.164-1.276-2.552-0.76-.5-2.878-0.288-4.082-0.255-0.105.224-.406,2.145-0.51,2.3-0.5.733-4.952,0.3-6.124,0.255V61.92H39.951c0.04-1.25.271-3.543-.255-4.338-0.787,1.031-2.187.338-3.317,1.021a15.5,15.5,0,0,0-3.062,7.144H29.744v-7.4C29.49,57.3,28.56,55.9,28.979,54.265a13.214,13.214,0,0,0,.765-2.807H27.958V51.2H27.7V50.438H24.9V44.569H27.7V43.8h0.51c0.717-.473,2.676-0.288,3.827-0.255v-0.51c0.573-.781,1.561-4.6,1.276-5.1-1.865-1.218-1.668-.941-1.531-4.083h0.255V33.6h3.827l2.552-6.379c2.088-.944,4.341-2.171,6.379-3.062,1.414-.618,2.8-0.747,4.083-1.531,1.809-1.106,3.249-3.1,5.868-3.317A8.7,8.7,0,0,1,55,17.268h3.572V15.737c1.867-1.135,3.369-2.852,5.1-4.083,0.38-.269,1.542-0.41,1.786-0.765V0.938a4.515,4.515,0,0,1,2.552-.51,0.921,0.921,0,0,0,.51.255V10.889a2.383,2.383,0,0,1,2.3,1.276c0.613,0.991.151,3.741,0.51,4.848,1.183-.052,2.024-0.085,2.552.51,0.226,0.358.277,1.431,0.51,1.786,0.848,0.554,3.281.288,4.593,0.255V19.309h0.255a6.038,6.038,0,0,1,.255-2.041,11.541,11.541,0,0,1,3.317-.255c0.835-.571,2.944-0.2,3.827,0a11.578,11.578,0,0,0,.51,2.041c0.891,0.582,3.482.289,4.848,0.255-0.039-1.208-.008-1.876.765-2.3,1.2-.774,4.889-0.289,6.634-0.255v0.255h0.255a6.035,6.035,0,0,0,.255,2.041,16.78,16.78,0,0,0,4.593.255,26.432,26.432,0,0,0,.765-2.552,26.182,26.182,0,0,1,7.145,0c-0.094,3.231,2.169,2.466,5.1,2.3V18.8h0.255a6.02,6.02,0,0,1,.255-2.041c1.7-.576,4.741-0.276,6.889-0.255,0.254,0.543.476,1.953,1.021,2.3,0.933,0.631,3.6.22,4.593,0-0.068-1.319-.175-1.9.765-2.3,1.157-.747,4.688-0.289,6.379-0.255,1.506,3.236.806,2.746,5.614,2.552V16.757c1.592-.835,5-0.542,7.4-0.51V16.5h0.255a6.046,6.046,0,0,0,.255,2.041,15.749,15.749,0,0,0,4.338.255,0.922,0.922,0,0,1,.51-0.255c0.207-.727.132-1.9,0.766-2.3,1.239-.818,5.545-0.288,6.889,0-0.078,2.915,1.867,2.456,4.593,2.3V18.288h0.255a6.02,6.02,0,0,1,.255-2.041c1.7-.576,4.741-0.276,6.889-0.255,1.506,3.236.806,2.746,5.614,2.552a9.857,9.857,0,0,1,.255-2.3h0.51c1.157-.747,4.688-0.289,6.379-0.255,1.506,3.236.805,2.746,5.613,2.552-0.039-1.208-.008-1.876.766-2.3,1.157-.747,4.688-0.289,6.379-0.255,0.357,0.764.48,2.137,1.276,2.552V18.8h0.255V12.93A0.925,0.925,0,0,0,203,12.42c3.165-.027,4.547-0.9,7.144-0.255v-7.4c1.327-.868.219-2.984,1.021-4.338a5.446,5.446,0,0,1,2.551-.255A15.719,15.719,0,0,1,213.967,4.51ZM60.873,26.2a3.978,3.978,0,0,0-1.021,2.041,8.624,8.624,0,0,1,1.021,1.276h7.144c0.569-.851.941-0.815,1.021-2.3C67.01,25.892,64.266,26.151,60.873,26.2Zm15.564,0c-0.525.789-.883,0.747-1.021,2.041,2.076,1.957,7.736,1.336,11.737,1.276,0.569-.851.941-0.815,1.021-2.3C85.782,25.666,80.387,26.157,76.438,26.2ZM23.11,43.294h1.531v8.42H23.11c-0.211.828,0.125,0.39-.51,0.766-0.822-1.25-3.879-.766-5.869-0.766H0.146v-8.42c1.792-.593,4.908-0.255,7.144-0.255H22.345a0.987,0.987,0,0,1,.765-0.51v0.766ZM3.463,45.845c-0.525.789-.883,0.747-1.021,2.041,2.4,2.243,12.616,1.327,17.351,1.276a7,7,0,0,0,1.276-1.786c-0.325-.337-0.611-1.334-1.021-1.531H3.463Zm134.212,16.33C137.718,68,134.108,73.047,129,73.657V72.892c3.737-2.42,5.67-5.635,5.613-11.992H110.884a6.376,6.376,0,0,0-.255,2.041c1.749,2.35,2.331,11.715,4.592,12.758H138.7V75.443c3.049-.909,4.2-3.458,4.082-7.655a5.444,5.444,0,0,0,.255-2.552C141.2,64.327,139.9,62.558,137.675,62.175Z"/>
</svg>
