<svg xmlns="http://www.w3.org/2000/svg" width="497" height="107" viewBox="0 0 497 107">
  <defs>
    <style>
      .cls-1 {
        fill: #ececec;
        fill-rule: evenodd;
      }
    </style>
  </defs>
  <path id="Stoeger" class="cls-1" d="M8.051-.005V9.406c3.422,1.735,13.936.7,18.914,0.7h211.2V8.012h0.7a4.657,4.657,0,0,1,2.452-.349q0.176-2.265.35-4.531c1.526-.519,4.228-0.375,6.305-0.349,0.638,1.277.819,1.408,2.8,1.394a2.339,2.339,0,0,1,2.1-1.394c0.638,1.277.82,1.408,2.8,1.394a8.126,8.126,0,0,1,1.051-1.394,1.2,1.2,0,0,1,.7.349c1.237,0.55,1.115.984,3.153,1.046,1.081-1.951,4.92-1.6,7.355-1.046V8.36c9.47-.137,16.6,3.35,24.868,4.531,1.035-1.4,2.383-2.1,4.9-2.091a6.54,6.54,0,0,0,1.751,1.046,11.669,11.669,0,0,1,0,3.486c-7.84.135-12.956-2.855-19.965-3.486v0.7h0.7c3.7,2.71,14.165,4.232,19.264,5.926,10.677,3.547,20.617,7.011,32.223,9.76,3.383,0.8,10.384,2.257,14.01.7,2.042-.878,3.86-3.11,5.955-4.183A4.5,4.5,0,0,1,352,22.3c0.926-.61,3.395-0.393,4.9-0.349V17.771a62.8,62.8,0,0,1,12.259,1.394c4.654,1.04,9.414.447,13.66,1.394l99.122,9.76c0.6,1.2.625,1.341,2.452,1.394,0.638-1.177,11.88-.446,12.609,1.046V35.2c-2.308,3.647-.906,16.863-2.1,22.308-1.427,6.5-.257,14.106-1.751,20.914-0.826,3.765-.136,8.032-1.051,12.2a82.572,82.572,0,0,0-1.4,15.686,4.644,4.644,0,0,1-2.8.7c-2.961-2.146-8.231-1.321-9.807-4.88a4.47,4.47,0,0,1-1.4-.349c-0.429,1.081-.131.788-1.4,1.046-1.981-1.418-4.89-1.508-7.355-2.44-6.6-2.493-13.736-4.4-20.665-6.971-20.209-7.5-41.424-13.422-61.645-20.914-6.26-2.319-12.608-4.072-18.563-6.274-2.7-1-6.305-1.127-8.406-2.788a5.49,5.49,0,0,1-.351-2.788H352V60.3h-0.35A3.661,3.661,0,0,0,351.3,58.2c-3.593,2.525-11.773,2.423-17.512,2.44L322.929,46.7l-4.2-1.394c-4.162-1.745-6.939-3.9-12.609-3.486-1.84,2.956-4.017,7.276-7.356,8.714-2.349,1.012-7.412,1.049-9.088,1.049a22.194,22.194,0,0,1-4.221-.352c-7.224-1.811-10.754-3.934-11.559-12.2,1-1.037,1.565-3.7,2.8-4.531-0.545.367-9.612-.251-14.36-0.349-4.293-.088-28-0.191-34.325-0.349-0.969.288-1.748,1.367-3.5,1.046-12.625-2.309-27.754-.409-40.28-3.137-3.435-.748-7.114-0.035-10.157-0.7h-5.6c-3.075-.674-7.431-0.375-10.508-1.046h-5.253c-6.054-1.329-13.667-.428-19.615-1.743-3.721-.823-8.625.419-10.157-2.44-0.929-1.267-1.068-3.421-1.051-5.577-2.849.261-3.852,0.349-3.852,0.349s0.042,2.2,0,4.183c-1.705.578-4.737,0.375-7.005,0.349v-0.7a3,3,0,0,1-.351-1.743h-4.9v2.091h-0.7c-1.1.72-4.227,0.394-5.954,0.349-0.346-.713-0.676-2.006-1.4-2.44-0.753-.5-2.559-0.388-3.853-0.349a11.239,11.239,0,0,1-.7,2.091c-1.224.795-4.78,0.394-6.655,0.349V24.394h-0.35a2.906,2.906,0,0,0-.35-1.743c-0.867-.573-3.118-0.392-4.553-0.349a10.561,10.561,0,0,1-.35,2.44H74.249V24.394H73.9a2.906,2.906,0,0,0-.35-1.743C72.681,22.078,70.431,22.26,69,22.3a14.14,14.14,0,0,0-.35,2.091c-0.169.009-4.982,0.072-7.005,0V22.3c-0.233,0-.467-0.349-0.7-0.349-0.9.047-2.839-.042-4.2,0a7.464,7.464,0,0,0-.35,2.44H49.731a0.992,0.992,0,0,0-.35-0.349,2.906,2.906,0,0,0-.35-1.743c-0.867-.573-3.118-0.392-4.553-0.349a0.991,0.991,0,0,1-.35.349,2.906,2.906,0,0,1-.35,1.743c-1.164.758-4.5,0.394-6.3,0.349-0.375-1.191-.034-1.319-0.35-2.44a41,41,0,0,0-5.254,0v2.091H24.863c-0.029-3.034-.236-2.547-5.254-2.44-0.163.485-.2,2.008-0.35,2.44-0.7.066-4.5,0.046-6.3,0a4,4,0,0,1-.7-2.44h-4.9V23.7H6.65a46.446,46.446,0,0,1-6.3,0C0.222,20.158-.034,14.463,0,10.452c4.046-1.325,3-4.414,2.8-9.411h0.35V0.692Zm271.8,33.811c-1.411,2.186-3.637,3.634-3.853,6.971,1.952,3.293.894,7.105,5.954,7.32,1.162,0.835,2.929.621,4.553,1.046,11.063,2.889,15.561-3.737,19.264-9.411l-1.05-.349c-2.364-1.768-6.878-1.694-9.807-2.789v2.091c1.345,1.971-.28,5.709-0.7,7.32l-2.1,1.394V46.7c0.966-.708,1.734-3.781.7-5.229C291.107,36,286.033,34.951,279.848,33.805Z"/>
</svg>
