<svg xmlns="http://www.w3.org/2000/svg" width="488" height="120" viewBox="0 0 488 120">
  <defs>
    <style>
      .cls-1 {
        fill: #fff;
        fill-rule: evenodd;
      }
    </style>
  </defs>
  <path id="DSR" class="cls-1" d="M318.24,0.031h8.973V1.313h1.6c0.042,4.027-.8,6.7-1.282,10.576L330.1,12.85l0.321,1.282h5.448V12.85h9.614v1.282c4.957,0.049,6.883-1.56,10.255-2.564,2.414-.719,4.909-0.788,7.05-1.282,3.336-.769,8.995-0.122,11.858.32,1.272,0.2,3.693-.306,5.448-0.32,1.288,3.873.344,14.906,0.32,19.869a10.348,10.348,0,0,1-4.807.641c-1.569-.844-11.545.431-14.741-0.32-2.048-.482-4.975-0.772-7.051-1.6-2.547-1.019-4.244-2.194-8.012-2.243-0.668,1.974-.346,5.492-0.32,8.012a0.908,0.908,0,0,1,.32.321c0.923-.171,2.036-0.568,2.885,0,0.977,1.37.664,1.681,3.2,1.6v-1.6h0.641a5.071,5.071,0,0,1,2.564-.321,3.349,3.349,0,0,1,.641,1.923H358.3V35.284l0.961-.32c0.821-.563,1.985-0.205,2.885,0,0.133,1.816.656,1.7,2.563,1.6l0.321-1.6h0.641c1.064-.7,4.121-0.362,5.768-0.321a11.857,11.857,0,0,1,.321,3.525c37.722-.2,76.8-0.31,115.05-0.32v0.641c1.861,2.462.961,9.452,0.961,13.46V77.266c0.081,3.933.431,8.989-.32,12.5h-2.564c-2.711,1.831-6.543-1.069-8.333-1.6v17.626H465.978a5.016,5.016,0,0,0-.321,1.6,8.322,8.322,0,0,1,.321,3.525h1.6v-4.166h6.089a28.3,28.3,0,0,1-.32,5.448h-9.294v7.371a1.551,1.551,0,0,1,.961.32c-1.437.05-3.916,0.273-4.807-.32h0.962V112.2h-1.6a5.406,5.406,0,0,0-.641-1.923c-0.014-.073.626-3.219,0.641-4.486h-5.127v-28.2c-4.568-2.761-9.426-5.147-14.1-8.012-2.756-1.689-5.585-4.177-8.973-5.127v4.807h-1.6c-1.43,4.3-.346,14.011-0.32,19.228-0.346.629-.049,2.406,0,3.846-1.624.856-4.8,0.681-7.371,0.641-1.641-1.016-9.83-.32-12.5-0.32l-30.766-.321a3.888,3.888,0,0,1-.961-2.884c0.494-.882,0-3.656,0-5.448V69.254h-1.923V65.729c-0.926-.622-1.926-2.154-2.884-2.564H361.824c-1.479,3.547-5.271,2.319-6.73,4.807-2.123,2.562-1.629,7.286,0,10.255,1.45,2.643,4.657,4.674,6.089,7.371,2.851,5.367,3.382,13.391,4.807,19.869h-0.641c-1.408.894-4.657,0.64-6.73,0.641-4.553,0-12.262.4-16.023-.32a5.868,5.868,0,0,1-.321-1.923c0.542-.77.338-1.793,0.641-2.884,1.4-5.045.47-7.048-.961-11.217-0.817-2.379-.255-5.528-1.6-7.371-4.818-4.548-13.968-3.723-22.753-3.846a4.432,4.432,0,0,0-4.487-2.564,12.5,12.5,0,0,1-.961,1.6h-3.846c-1.082.343-2.672,1.391-3.846,1.923,1.241,3.722.961,10.013,0.962,14.421,1.785,1.082,1.723,2.8,1.6,5.769H268.887a14.505,14.505,0,0,1-.321-4.166c1.8-1.108,2.032-2.377,1.923-5.448,0.865-1.368.667-9.256,0.641-11.537h0.321a13.251,13.251,0,0,0,3.525,3.525L266,72.458h-4.486c-0.794-.527-2.853-0.36-4.166-0.32-3.675-6.288-7.229-7.743-7.692-17.626-43.133.01-86.839-.3-129.471-0.32V48.1c-1.807-.613-5.03-0.346-7.371-0.32-1.873-1.16-12-.32-15.062-0.32H57.695v2.564H51.926v0.961H48.081V48.423c-6.735.25-14.9,0.569-21.151,1.923H0.01V37.527H0.651c1.635-1.029,10.127-.321,12.819-0.321H36.544c3.685,0.825,7.832,2.025,11.537,2.243V36.886a13.163,13.163,0,0,1,3.846-.321c0.627,1.475,3.721,1.063,5.769.961v2.564l62.172-.321V35.924c2.85-.936,7.77-0.32,11.216-0.32H233.314c1.428-2.433,5.36-.042,7.051,0,2.034,0.051,2.3-.98,4.807-0.962,0.653,1.3,1.171,1.363,3.2,1.282V34.963h0.641a5.071,5.071,0,0,1,2.564-.321c0.616,1.556.936,1.7,3.205,1.6a1.548,1.548,0,0,1,.32-0.961,1.159,1.159,0,0,1,.641-0.32c0.821-.563,1.985-0.205,2.885,0,0.134,1.816.656,1.7,2.563,1.6l0.321-1.6h0.641c0.82-.563,1.984-0.205,2.884,0,0.146,1.9.895,1.729,2.884,1.6v-1.6h0.641a5.071,5.071,0,0,1,2.564-.321c0.61,1.684.761,2.025,3.2,1.923v-1.6a10.934,10.934,0,0,1,3.845,0c0.134,1.816.657,1.7,2.564,1.6l0.321-1.6h0.641c0.82-.563,1.984-0.205,2.884,0,0.146,1.9.9,1.729,2.884,1.6v-1.6h0.641a5.071,5.071,0,0,1,2.564-.321c0.594,1.766.711,2.036,3.205,1.923v-1.6l3.2-.321a3.349,3.349,0,0,1,.641,1.923h2.564c0.027-.994.189-1.289,0-1.6a3.471,3.471,0,0,0-1.923-.321V26.951c-1.315-.45-3.635-0.344-5.448-0.32-1.648,1.255-4.214,1.212-6.409,1.923-9.168,2.971-22.38,2.762-33.97,2.884-1.833-3.552-.676-15.962-0.641-21.151a1.163,1.163,0,0,0,.32-0.641h0.641c1.589-.959,2.332.77,4.166,0.32a23.487,23.487,0,0,1,8.653-.32H275.3c7.79,1.843,13.978,4.351,23.074,4.487V12.85h9.615v1.282h7.05q0.16-.8.32-1.6c1.625-.028,2.278-0.133,2.564-1.6-0.628-.955-0.362-3.615-0.32-5.128h-0.962V1.313h1.6V0.031ZM307.985,29.195l27.881,0.32V26.631c-6.128,0-11.091,3.564-17.306,1.923a16.42,16.42,0,0,1-3.2-.961q-0.159-.481-0.32-0.961h-6.73A8.048,8.048,0,0,0,307.985,29.195ZM342.6,34.963v1.282a8.033,8.033,0,0,0,2.563.32,4.511,4.511,0,0,0,.321-1.282A9.265,9.265,0,0,0,342.6,34.963Zm76.913,6.089v1.923H447.39V40.411h0.321v-0.32c1.29,0.042,1.752.174,2.243-.641H375.6V39.77h6.089l0.321,0.961c1.276,0.689,11.972.067,14.1,0.641,0.552,0.149,4.408-.64,6.089-0.641C407.964,40.73,414.245,40.819,419.509,41.052ZM3.214,41.373v5.448h7.05V41.693C8.54,41.107,5.467,41.348,3.214,41.373Zm12.5,5.128h5.769V41.693a41.03,41.03,0,0,1-5.448-.32A18.463,18.463,0,0,0,15.713,46.5Zm11.217-4.807V46.5h6.73V41.693h-6.73Zm100.949,6.089a9.78,9.78,0,0,0,.321,2.243h0.32v0.32a23.417,23.417,0,0,0,6.73,0,4.226,4.226,0,0,0,.641-2.564h-8.012Zm9.615,0a3.32,3.32,0,0,0,.641,2.243v0.32c2.95,0.381,15.052,1.164,16.985-.32a2.477,2.477,0,0,1,.961-0.962,2.327,2.327,0,0,0,1.282,1.6c1.98,0.709,15.227-.008,16.024-0.641a1.163,1.163,0,0,0,.32-0.641,2.775,2.775,0,0,0,.321-1.6H137.493Zm37.5,0a3.32,3.32,0,0,0,.641,2.243v0.32c2.95,0.381,15.052,1.164,16.985-.32h0.321q0.159-1.122.32-2.243H174.988Zm19.549,0q0.16,0.961.32,1.923c1.821,1.071,15.3,1.879,17.306.321A2.369,2.369,0,0,0,212.8,48.1h-0.321v-0.32H194.537Zm38.136,0c-4.949-.042-14.207-1.037-18.267.32q0.321,0.961.641,1.923c3.454,1.541,12.923,1.131,16.985.32l0.321-.961A2.776,2.776,0,0,0,232.673,47.782Zm1.282,0,0.321,1.923c3.379,1.957,13.662,1.344,17.626.321q0.32-.961.641-1.923C248.381,46.717,239.014,47.757,233.955,47.782ZM458.927,82.714c2.6,0.059,14.986.435,15.7-.641h-2.885v-0.32c-0.807-1.289-.32-4.829-0.32-6.73V58.358h0.32v-0.32c1.369,0.074,2.365.215,2.885-.641h-6.41c-1.677-1.077-6.9-.363-9.294-0.32-1.294,3.885-.345,12.564-0.32,17.306C459.58,75.89,458.97,80.522,458.927,82.714ZM332.34,63.485c-0.365,3.3-2.266,5.016-3.525,7.371H328.5V70.215c1.125-1.44,1.289-4.6,1.282-7.05-8.33-.422-14.369-0.308-14.1,9.294-0.081.31-.251,0.121,0,0.32a4.859,4.859,0,0,0,4.807,3.525c2.028,1.315,10.258-.519,12.819-0.641,2.82-3.481,5.336-3.655,3.846-10.9C335.437,64.337,334.513,63.6,332.34,63.485Zm137.484,43.9a3.888,3.888,0,0,0-.962,2.884,1.155,1.155,0,0,1,.321.641,9.269,9.269,0,0,0,2.884.321q0.16-.481.32-0.962a1.635,1.635,0,0,0-.961-2.564A2.777,2.777,0,0,0,469.824,107.39Z"/>
</svg>
