<svg xmlns="http://www.w3.org/2000/svg" width="256" height="256" viewBox="0 0 256 256">
  <defs>
    <style>
      .cls-1 {
        fill: #fff;
        fill-rule: evenodd;
      }
    </style>
  </defs>
  <path id="GUI_Hitmarker_Normal" class="cls-1" d="M251,18V6L238,5,159,85a9.78,9.78,0,0,0,2,11c4.523,3,10,1,10,1ZM17.8,5.727H5.775l-1,12.976L84.921,97.557a9.826,9.826,0,0,0,11.02-2c3.006-4.515,1-9.982,1-9.982ZM6,240v12l13,1,79-80a9.78,9.78,0,0,0-2-11c-4.523-3-10-1-10-1Zm233.2,12.273h12.022l1-12.976-80.148-78.854a9.826,9.826,0,0,0-11.02,2c-3.006,4.515-1,9.982-1,9.982Z"/>
</svg>
